<svg width="81" height="33" viewBox="0 0 81 33" fill="none" xmlns="http://www.w3.org/2000/svg">
<path d="M0.168 12V0.719999H2.36L6.28 9.52H5.768L9.688 0.719999H11.864V12H9.592V4.336H10.232L6.728 12H5.288L1.768 4.336H2.44V12H0.168ZM15.7833 12V0.719999H23.6233V2.656H18.1673V5.296H23.2393V7.248H18.1673V10.064H23.6233V12H15.7833ZM26.9614 12V0.719999H31.2654C32.5774 0.719999 33.6867 0.943999 34.5934 1.392C35.5 1.84 36.1827 2.48533 36.6414 3.328C37.1107 4.16 37.3454 5.168 37.3454 6.352C37.3454 7.52533 37.1107 8.53333 36.6414 9.376C36.1827 10.2187 35.5 10.8693 34.5934 11.328C33.6867 11.776 32.5774 12 31.2654 12H26.9614ZM29.4574 9.952H31.1214C32.38 9.952 33.3134 9.65867 33.9214 9.072C34.54 8.47467 34.8494 7.568 34.8494 6.352C34.8494 5.12533 34.54 4.21867 33.9214 3.632C33.3134 3.04533 32.38 2.752 31.1214 2.752H29.4574V9.952ZM40.9051 12V0.719999H43.4011V12H40.9051ZM52.7424 12.176C51.537 12.176 50.5024 11.936 49.6384 11.456C48.7744 10.976 48.1077 10.304 47.6384 9.44C47.1797 8.56533 46.9504 7.536 46.9504 6.352C46.9504 5.168 47.1797 4.144 47.6384 3.28C48.1077 2.416 48.7744 1.744 49.6384 1.264C50.5024 0.784 51.537 0.544 52.7424 0.544C53.521 0.544 54.2304 0.656 54.8704 0.879999C55.5104 1.09333 56.0544 1.408 56.5024 1.824L55.7184 3.792C55.2277 3.408 54.7584 3.136 54.3104 2.976C53.873 2.816 53.377 2.736 52.8224 2.736C51.7664 2.736 50.9557 3.05067 50.3904 3.68C49.8357 4.29867 49.5584 5.18933 49.5584 6.352C49.5584 7.51467 49.8357 8.41067 50.3904 9.04C50.9557 9.66933 51.7664 9.984 52.8224 9.984C53.377 9.984 53.873 9.904 54.3104 9.744C54.7584 9.584 55.2277 9.312 55.7184 8.928L56.5024 10.896C56.0544 11.3013 55.5104 11.616 54.8704 11.84C54.2304 12.064 53.521 12.176 52.7424 12.176ZM58.3084 12L63.4924 0.719999H65.5564L70.8044 12H68.2764L66.9164 8.864L67.8924 9.552H61.1884L62.1804 8.864L60.8204 12H58.3084ZM64.5164 3.344L62.4524 8.24L62.0204 7.632H67.0604L66.6924 8.24L64.5804 3.344H64.5164ZM73.377 12V0.719999H75.873V9.904H80.961V12H73.377ZM5.32 32.144C4.18933 32.144 3.22933 31.9093 2.44 31.44C1.65067 30.9707 1.04267 30.304 0.616 29.44C0.2 28.576 -0.00799996 27.5467 -0.00799996 26.352C-0.00799996 25.1573 0.2 24.1333 0.616 23.28C1.04267 22.416 1.65067 21.7493 2.44 21.28C3.22933 20.8107 4.18933 20.576 5.32 20.576C6.12 20.576 6.83467 20.6987 7.464 20.944C8.09333 21.1893 8.64267 21.5467 9.112 22.016L8.616 23.072C8.104 22.624 7.59733 22.2987 7.096 22.096C6.59467 21.8827 6.008 21.776 5.336 21.776C4.04533 21.776 3.064 22.176 2.392 22.976C1.72 23.776 1.384 24.9013 1.384 26.352C1.384 27.8027 1.72 28.9333 2.392 29.744C3.064 30.544 4.04533 30.944 5.336 30.944C6.008 30.944 6.59467 30.8427 7.096 30.64C7.59733 30.4267 8.104 30.0907 8.616 29.632L9.112 30.704C8.64267 31.1627 8.09333 31.52 7.464 31.776C6.83467 32.0213 6.12 32.144 5.32 32.144ZM12.9455 32V20.72H14.2735V25.712H21.0735V20.72H22.3855V32H21.0735V26.848H14.2735V32H12.9455ZM26.7955 32V20.72H33.9955V21.808H28.0915V25.728H33.6435V26.832H28.0915V30.896H33.9955V32H26.7955ZM42.6669 32.144C41.5362 32.144 40.5762 31.9093 39.7869 31.44C38.9975 30.9707 38.3895 30.304 37.9629 29.44C37.5469 28.576 37.3389 27.5467 37.3389 26.352C37.3389 25.1573 37.5469 24.1333 37.9629 23.28C38.3895 22.416 38.9975 21.7493 39.7869 21.28C40.5762 20.8107 41.5362 20.576 42.6669 20.576C43.4669 20.576 44.1815 20.6987 44.8109 20.944C45.4402 21.1893 45.9895 21.5467 46.4589 22.016L45.9629 23.072C45.4509 22.624 44.9442 22.2987 44.4429 22.096C43.9415 21.8827 43.3549 21.776 42.6829 21.776C41.3922 21.776 40.4109 22.176 39.7389 22.976C39.0669 23.776 38.7309 24.9013 38.7309 26.352C38.7309 27.8027 39.0669 28.9333 39.7389 29.744C40.4109 30.544 41.3922 30.944 42.6829 30.944C43.3549 30.944 43.9415 30.8427 44.4429 30.64C44.9442 30.4267 45.4509 30.0907 45.9629 29.632L46.4589 30.704C45.9895 31.1627 45.4402 31.52 44.8109 31.776C44.1815 32.0213 43.4669 32.144 42.6669 32.144ZM50.2924 32V20.72H51.6204V25.84H51.6524L57.0604 20.72H58.7564L52.5324 26.544L52.5484 25.872L59.2044 32H57.4604L51.6524 26.688H51.6204V32H50.2924Z" fill="black"/>
</svg>
